<?xml version="1.0" encoding="utf-8"?>
<!-- Generator: Adobe Illustrator 23.0.3, SVG Export Plug-In . SVG Version: 6.00 Build 0)  -->
<svg version="1.1" id="Слой_1" xmlns="http://www.w3.org/2000/svg" xmlns:xlink="http://www.w3.org/1999/xlink" x="0px" y="0px"
	 viewBox="0 0 400 100" style="enable-background:new 0 0 400 100;" xml:space="preserve">
<style type="text/css">
	.st0{fill:#FFFFFF;}
</style>
<g>
	<polygon class="st0" points="7.63,27.98 26.76,27.98 26.76,81.42 43.8,81.42 43.8,27.98 62.93,27.98 62.93,12.08 7.63,12.08 	"/>
	<path class="st0" d="M105.6,33.78c-1.88-2.41-4.38-4.3-7.44-5.6c-2.92-1.25-6.53-1.88-10.71-1.88c-1.89,0-3.82,0.18-5.74,0.52V4
		L65.01,6.87v74.55h16.69V42.56c0.06-0.01,0.12-0.02,0.19-0.03c0.79-0.14,1.62-0.26,2.48-0.37c2.55-0.32,4.74-0.11,6.11,0.41
		c0.68,0.26,1.17,0.63,1.56,1.17c0.51,0.71,0.91,1.8,1.17,3.15c0.33,1.72,0.5,3.87,0.5,6.4v28.13h16.69V51.53
		c0-3.4-0.33-6.58-0.98-9.46C108.69,38.9,107.41,36.11,105.6,33.78z"/>
	<path class="st0" d="M139.83,26.12c-3.16,0-6.29,0.6-9.29,1.79c-3.07,1.21-5.81,3.05-8.16,5.47c-2.32,2.39-4.19,5.4-5.57,8.93
		c-1.36,3.49-2.04,7.57-2.04,12.12c0,3.87,0.52,7.5,1.55,10.8c1.08,3.46,2.78,6.51,5.05,9.06c2.3,2.59,5.23,4.63,8.71,6.07
		c3.4,1.41,7.42,2.12,11.94,2.12c3.47,0,6.64-0.33,9.44-0.99c2.9-0.68,4.88-1.33,6.24-2.05l2.72-1.44l-2.57-15.44l-5.1,2.4
		c-0.51,0.24-1.56,0.64-3.66,1.17c-1.61,0.41-3.69,0.61-6.19,0.61c-3.87,0-6.63-0.81-8.18-2.4c-0.88-0.9-1.57-2.09-2.06-3.55h29.9
		l0.46-3.74c0.08-0.64,0.12-1.34,0.12-2.06v-1.36c0-8.85-2-15.67-5.94-20.28C153.09,28.56,147.25,26.12,139.83,26.12z M139.74,41.58
		c2.04,0,3.44,0.6,4.53,1.96c0.51,0.63,0.91,1.35,1.21,2.15h-12.18c0.31-0.61,0.67-1.15,1.1-1.66c0.63-0.74,1.39-1.34,2.33-1.82
		C137.56,41.79,138.54,41.58,139.74,41.58z"/>
	<polygon class="st0" points="208.59,12.08 191.55,12.08 191.55,81.42 236.67,81.42 236.67,65.52 208.59,65.52 	"/>
	<path class="st0" d="M281.4,34.11c-2.31-2.55-5.09-4.55-8.27-5.93c-3.16-1.37-6.62-2.06-10.3-2.06c-3.67,0-7.14,0.69-10.3,2.06
		c-3.18,1.38-5.97,3.37-8.27,5.93c-2.27,2.51-4.04,5.55-5.28,9.02c-1.21,3.4-1.83,7.18-1.83,11.22c0,4.1,0.62,7.9,1.83,11.27
		c1.24,3.43,3.01,6.45,5.28,8.96c2.3,2.55,5.09,4.55,8.27,5.93c3.16,1.37,6.62,2.06,10.3,2.06s7.13-0.69,10.29-2.06
		c3.18-1.38,5.97-3.37,8.27-5.93c2.27-2.51,4.04-5.53,5.28-8.96c1.22-3.38,1.83-7.17,1.83-11.27c0-4.04-0.61-7.82-1.83-11.22
		C285.45,39.66,283.67,36.62,281.4,34.11z M262.84,66.84c-2.64,0-4.56-0.91-6.05-2.85c-1.71-2.24-2.58-5.48-2.58-9.64
		c0-4.16,0.87-7.41,2.59-9.65c1.49-1.94,3.41-2.85,6.05-2.85c2.63,0,4.56,0.91,6.05,2.85c1.72,2.24,2.59,5.48,2.59,9.65
		c0,4.16-0.87,7.41-2.58,9.64C267.37,65.96,265.51,66.84,262.84,66.84z"/>
	<path class="st0" d="M328.28,27.21c-3.1-0.61-6.72-0.91-10.78-0.91c-4,0-7.68,0.68-10.94,2.04c-3.3,1.37-6.14,3.3-8.44,5.75
		c-2.3,2.44-4.07,5.36-5.25,8.68c-1.16,3.23-1.74,6.8-1.74,10.61c0,4.31,0.63,8.13,1.86,11.35c1.26,3.29,3.02,6.1,5.24,8.36
		c2.26,2.29,4.93,4.01,7.95,5.1c2.88,1.04,5.98,1.57,9.22,1.57c2.19,0,4.24-0.22,6.11-0.65c-0.27,0.6-0.62,1.09-1.03,1.47
		c-1.28,1.16-3.99,1.79-7.62,1.79c-2.26,0-4.46-0.22-6.54-0.66c-2.13-0.45-3.92-0.95-5.32-1.51l-4.7-1.85l-3.3,15.74l3.56,1.22
		c2.06,0.71,4.5,1.32,7.24,1.83c2.79,0.51,5.78,0.77,8.89,0.77c8.39,0,14.89-1.95,19.3-5.79c4.58-3.99,6.91-10.21,6.91-18.48V29.57
		l-3.26-0.79C333.64,28.31,331.18,27.78,328.28,27.21z M308.93,58.78c-0.5-1.4-0.76-3.18-0.76-5.31c0-3.75,0.84-6.59,2.58-8.69
		c0.98-1.18,2.75-2.75,6.85-2.75c1.92,0,3.46,0.07,4.6,0.21v20.73c-0.39,0.17-0.86,0.36-1.4,0.54c-1.36,0.46-2.91,0.7-4.6,0.7
		c-1.05,0-2.05-0.19-3.05-0.59c-0.89-0.35-1.67-0.89-2.38-1.65C310.02,61.17,309.4,60.1,308.93,58.78z"/>
	<path class="st0" d="M391.56,43.13c-1.24-3.47-3.01-6.5-5.28-9.02c-2.31-2.55-5.09-4.55-8.27-5.93c-3.16-1.37-6.62-2.06-10.3-2.06
		c-3.67,0-7.14,0.69-10.3,2.06c-3.18,1.38-5.97,3.37-8.27,5.93c-2.27,2.51-4.04,5.55-5.28,9.02c-1.21,3.4-1.83,7.18-1.83,11.22
		c0,4.1,0.62,7.9,1.83,11.27c1.24,3.43,3.01,6.45,5.28,8.96c2.3,2.55,5.09,4.55,8.27,5.93c3.16,1.37,6.62,2.06,10.3,2.06
		s7.13-0.69,10.29-2.06c3.18-1.38,5.97-3.37,8.27-5.93c2.27-2.51,4.04-5.53,5.28-8.96c1.22-3.38,1.83-7.17,1.83-11.27
		C393.39,50.3,392.78,46.53,391.56,43.13z M367.71,66.84c-2.64,0-4.56-0.91-6.05-2.85c-1.71-2.24-2.58-5.48-2.58-9.64
		c0-4.16,0.87-7.41,2.59-9.65c1.49-1.94,3.41-2.85,6.05-2.85c2.63,0,4.56,0.91,6.05,2.85c1.72,2.24,2.59,5.48,2.59,9.65
		c0,4.16-0.87,7.41-2.58,9.64C372.25,65.96,370.39,66.84,367.71,66.84z"/>
</g>
</svg>
